<?xml version="1.0" encoding="UTF-8"?>
<svg width="155px" height="156px" viewBox="0 0 155 156" version="1.1" xmlns="http://www.w3.org/2000/svg" xmlns:xlink="http://www.w3.org/1999/xlink">
    <title>Group 2</title>
    <defs>
        <rect id="path-1" x="0" y="0" width="155" height="156" rx="35"></rect>
    </defs>
    <g id="Page-1" stroke="none" stroke-width="1" fill="none" fill-rule="evenodd">
        <g id="Group-2">
            <mask id="mask-2" fill="white">
                <use xlink:href="#path-1"></use>
            </mask>
            <g id="Rectangle"></g>
            <g id="freenav" mask="url(#mask-2)">
                <g transform="translate(0.000000, 1.000000)" id="Group">
                    <g>
                        <g id="p0-link" fill="#000000" fill-rule="nonzero" stroke="#FEFEFD">
                            <path d="M0,0 L23.87,0 C18,2.12 12.33,4.29 8.05,9.05 C3.61,13.89 1.86,19.65 0,25.79 L0,0 Z" id="p0"></path>
                        </g>
                        <g id="p1-link" fill="#000000" fill-rule="nonzero" stroke="#F2862B">
                            <path d="M23.87,0 L133.06,0 C138.1,1.86 142.83,3.43 146.88,7.12 C153.73,13.17 156.63,22.02 156.54,30.99 C156.5,62.33 156.45,93.66 156.55,125 C156.61,131.58 155.26,138 151.49,143.49 C146.57,150.99 137.95,155.66 128.96,155.59 C95.33,155.65 61.67,155.68 28.04,155.59 C19.69,155.69 11.95,151.68 6.77,145.23 C2.51,139.82 1.24,133.71 0,127.1 L0,25.79 C1.86,19.65 3.61,13.89 8.05,9.05 C12.33,4.29 18,2.12 23.87,0 Z M78.2,83.37 C73,79.14 68.43,74.05 63.77,69.24 C60.68,66.07 57.83,62.36 54.26,59.74 C52.34,58.29 49.5,57.89 47.48,59.36 C45,61.16 44.6,65.18 46.41,67.57 C48.95,71.19 52.56,74.19 55.7,77.3 C62.03,83.28 67.65,90.08 74.16,95.86 C76.11,97.66 78.65,98.35 81.12,97.19 C82.96,96.16 84.55,94.51 86.04,93.04 C90.96,87.96 95.9,82.9 100.84,77.84 C104.12,74.45 108.41,71.21 110.77,67.12 C112.59,64.07 111.4,59.78 107.86,58.68 C104.71,57.72 102.65,59.57 100.49,61.52 C96.45,65.46 92.77,69.77 88.76,73.76 C85.28,77.2 82.46,80.82 78.2,83.37 Z" id="p1"></path>
                        </g>
                        <g id="p2-link" fill="#000000" fill-rule="nonzero" stroke="#FEFEFD">
                            <path d="M133.06,0 L157,0 L157,157 L0,157 L0,127.1 C1.24,133.71 2.51,139.82 6.77,145.23 C11.95,151.68 19.69,155.69 28.04,155.59 C61.67,155.68 95.33,155.65 128.96,155.59 C137.95,155.66 146.57,150.99 151.49,143.49 C155.26,138 156.61,131.58 156.55,125 C156.45,93.66 156.5,62.33 156.54,30.99 C156.63,22.02 153.73,13.17 146.88,7.12 C142.83,3.43 138.1,1.86 133.06,0 Z" id="p2"></path>
                        </g>
                        <g id="p3-link" transform="translate(45.289109, 58.418503)" fill="#000000" fill-rule="nonzero" stroke="#FEFEFD">
                            <path d="M2.19089106,0.941497338 C4.21089106,-0.528502662 7.05089106,-0.128502662 8.97089106,1.32149734 C12.5408911,3.94149734 15.3908911,7.65149734 18.4808911,10.8214973 C23.1408911,15.6314973 27.7108911,20.7214973 32.9108911,24.9514973 C37.1708911,22.4014973 39.9908911,18.7814973 43.4708911,15.3414973 C47.4808911,11.3514973 51.1608911,7.04149734 55.2008911,3.10149734 C57.3608911,1.15149734 59.4208911,-0.698502662 62.5708911,0.261497338 C66.1108911,1.36149734 67.3008911,5.65149734 65.4808911,8.70149734 C63.1208911,12.7914973 58.8308911,16.0314973 55.5508911,19.4214973 C50.6108911,24.4814973 45.6708911,29.5414973 40.7508911,34.6214973 C39.2608911,36.0914973 37.6708911,37.7414973 35.8308911,38.7714973 C33.3608911,39.9314973 30.8208911,39.2414973 28.8708911,37.4414973 C22.3608911,31.6614973 16.7408911,24.8614973 10.4108911,18.8814973 C7.27089106,15.7714973 3.66089106,12.7714973 1.12089106,9.15149734 C-0.689108941,6.76149734 -0.289108941,2.74149734 2.19089106,0.941497338 Z" id="p3"></path>
                        </g>
                    </g>
                    <g>
                        <g id="p0-link" fill="#FEFEFD" fill-rule="nonzero">
                            <path d="M0,0 L23.87,0 C18,2.12 12.33,4.29 8.05,9.05 C3.61,13.89 1.86,19.65 0,25.79 L0,0 Z" id="p0"></path>
                        </g>
                        <g id="p1-link" fill="#F2862B" fill-rule="nonzero">
                            <path d="M23.87,0 L133.06,0 C138.1,1.86 142.83,3.43 146.88,7.12 C153.73,13.17 156.63,22.02 156.54,30.99 C156.5,62.33 156.45,93.66 156.55,125 C156.61,131.58 155.26,138 151.49,143.49 C146.57,150.99 137.95,155.66 128.96,155.59 C95.33,155.65 61.67,155.68 28.04,155.59 C19.69,155.69 11.95,151.68 6.77,145.23 C2.51,139.82 1.24,133.71 0,127.1 L0,25.79 C1.86,19.65 3.61,13.89 8.05,9.05 C12.33,4.29 18,2.12 23.87,0 Z M78.2,83.37 C73,79.14 68.43,74.05 63.77,69.24 C60.68,66.07 57.83,62.36 54.26,59.74 C52.34,58.29 49.5,57.89 47.48,59.36 C45,61.16 44.6,65.18 46.41,67.57 C48.95,71.19 52.56,74.19 55.7,77.3 C62.03,83.28 67.65,90.08 74.16,95.86 C76.11,97.66 78.65,98.35 81.12,97.19 C82.96,96.16 84.55,94.51 86.04,93.04 C90.96,87.96 95.9,82.9 100.84,77.84 C104.12,74.45 108.41,71.21 110.77,67.12 C112.59,64.07 111.4,59.78 107.86,58.68 C104.71,57.72 102.65,59.57 100.49,61.52 C96.45,65.46 92.77,69.77 88.76,73.76 C85.28,77.2 82.46,80.82 78.2,83.37 Z" id="p1"></path>
                        </g>
                        <g id="p2-link" fill="#FEFEFD" fill-rule="nonzero">
                            <path d="M133.06,0 L157,0 L157,157 L0,157 L0,127.1 C1.24,133.71 2.51,139.82 6.77,145.23 C11.95,151.68 19.69,155.69 28.04,155.59 C61.67,155.68 95.33,155.65 128.96,155.59 C137.95,155.66 146.57,150.99 151.49,143.49 C155.26,138 156.61,131.58 156.55,125 C156.45,93.66 156.5,62.33 156.54,30.99 C156.63,22.02 153.73,13.17 146.88,7.12 C142.83,3.43 138.1,1.86 133.06,0 Z" id="p2"></path>
                        </g>
                        <g id="p3-link" transform="translate(45.289109, 58.418503)" fill="#FEFEFD" fill-rule="nonzero">
                            <path d="M2.19089106,0.941497338 C4.21089106,-0.528502662 7.05089106,-0.128502662 8.97089106,1.32149734 C12.5408911,3.94149734 15.3908911,7.65149734 18.4808911,10.8214973 C23.1408911,15.6314973 27.7108911,20.7214973 32.9108911,24.9514973 C37.1708911,22.4014973 39.9908911,18.7814973 43.4708911,15.3414973 C47.4808911,11.3514973 51.1608911,7.04149734 55.2008911,3.10149734 C57.3608911,1.15149734 59.4208911,-0.698502662 62.5708911,0.261497338 C66.1108911,1.36149734 67.3008911,5.65149734 65.4808911,8.70149734 C63.1208911,12.7914973 58.8308911,16.0314973 55.5508911,19.4214973 C50.6108911,24.4814973 45.6708911,29.5414973 40.7508911,34.6214973 C39.2608911,36.0914973 37.6708911,37.7414973 35.8308911,38.7714973 C33.3608911,39.9314973 30.8208911,39.2414973 28.8708911,37.4414973 C22.3608911,31.6614973 16.7408911,24.8614973 10.4108911,18.8814973 C7.27089106,15.7714973 3.66089106,12.7714973 1.12089106,9.15149734 C-0.689108941,6.76149734 -0.289108941,2.74149734 2.19089106,0.941497338 Z" id="p3"></path>
                        </g>
                    </g>
                </g>
            </g>
        </g>
    </g>
</svg>