<?xml version="1.0" encoding="UTF-8"?>
<svg width="67px" height="40px" viewBox="0 0 67 40" version="1.1" xmlns="http://www.w3.org/2000/svg" xmlns:xlink="http://www.w3.org/1999/xlink">
    <title>p1-path</title>
    <g id="Page-1" stroke="none" stroke-width="1" fill="none" fill-rule="evenodd">
        <path d="M33.2,25.37 C28,21.14 23.43,16.05 18.77,11.24 C15.68,8.07 12.83,4.36 9.26,1.74 C7.34,0.29 4.5,-0.11 2.48,1.36 C-7.04991621e-15,3.16 -0.4,7.18 1.41,9.57 C3.95,13.19 7.56,16.19 10.7,19.3 C17.03,25.28 22.65,32.08 29.16,37.86 C31.11,39.66 33.65,40.35 36.12,39.19 C37.96,38.16 39.55,36.51 41.04,35.04 C45.96,29.96 50.9,24.9 55.84,19.84 C59.12,16.45 63.41,13.21 65.77,9.12 C67.59,6.07 66.4,1.78 62.86,0.68 C59.71,-0.28 57.65,1.57 55.49,3.52 C51.45,7.46 47.77,11.77 43.76,15.76 C40.28,19.2 37.46,22.82 33.2,25.37 Z" id="p1-path" fill="#000000"></path>
    </g>
</svg>